<svg id="Layer_1" enable-background="new 0 0 450 450" height="512" viewBox="0 0 450 450" width="512" xmlns="http://www.w3.org/2000/svg"><g><g><g><g><g><g><g><path clip-rule="evenodd" d="m225.3 270.4h2.1c6.1 0 11.8-1.1 16.7-3.4 5-2.3 8.8-5.5 11.5-9.6s4-8.5 4-13.2-1.2-8.9-3.7-12.5l-.1-.1c-2.4-3.6-6.2-6.5-11.2-8.9-3.4-1.6-9.8-3.4-18.9-5.5-8.9-2-14.5-4-16.6-5.9-2-1.8-3-4.1-3-6.9 0-3.3 1.4-6 4.3-8.4s7.8-3.5 14.3-3.5c6.3 0 11.1 1.3 14.2 3.9 2.2 1.8 3.8 4.4 4.8 7.5.8 2.7 3.2 4.5 6 4.5h.5.1c1.9-.1 3.6-1.1 4.7-2.7 1.1-1.5 1.4-3.5.9-5.3-.7-2.5-1.8-4.9-3.3-7.1-2.7-4.1-6.5-7.2-11.4-9.2-4.6-1.9-10-3-16-3.1-.3 0-.7 0-1 0-5.8 0-11.1 1-15.9 3s-8.5 4.9-11 8.8c-2.5 3.8-3.8 8-3.8 12.4 0 4 1 7.7 3.1 11s5.2 6 9.3 8.2c3.2 1.7 8.7 3.5 16.6 5.4 7.7 1.9 12.7 3.2 15 4.1 3.4 1.3 5.8 2.9 7.3 4.7 1.4 1.8 2.1 4 2.1 6.5 0 2.4-.8 4.7-2.2 6.8-1.5 2.1-3.8 3.7-6.9 4.9-3.2 1.2-6.9 1.9-11 1.9-4.7 0-8.9-.8-12.7-2.4-3.7-1.6-6.4-3.7-8.2-6.3-1.1-1.6-1.9-3.5-2.5-5.7-.8-2.8-3.3-4.7-6.1-4.7-.2 0-.4 0-.5 0-1.8.2-3.5 1.1-4.6 2.6s-1.5 3.4-1 5.2c.8 3.3 2.1 6.4 4 9.2 3 4.6 7.3 8.1 12.6 10.4 4.7 2 10.6 3.2 17.5 3.4zm0-133.3c49 0 88.7 39.7 88.7 88.7s-39.7 88.7-88.7 88.7-88.7-39.7-88.7-88.7 39.7-88.7 88.7-88.7z" fill="#ffe082" fill-rule="evenodd"/></g><g><path clip-rule="evenodd" d="m225.3 181.1c6 .1 11.3 1.1 16 3.1 4.9 2.1 8.8 5.2 11.4 9.2 1.5 2.2 2.5 4.6 3.3 7.1.5 1.8.2 3.7-.9 5.3s-2.8 2.5-4.7 2.7h-.1c-.2 0-.3 0-.5 0-2.8 0-5.2-1.8-6-4.5-.9-3.1-2.5-5.6-4.8-7.5-3.2-2.6-8-3.9-14.2-3.9-6.6 0-11.4 1.2-14.3 3.5s-4.3 5.1-4.3 8.4c0 2.8 1 5.1 3 6.9 2.1 1.9 7.6 3.8 16.6 5.9 9.1 2.1 15.5 3.9 18.9 5.5 5 2.3 8.8 5.3 11.2 8.9l.1.1c2.4 3.6 3.7 7.8 3.7 12.5 0 4.6-1.3 9.1-4 13.2s-6.5 7.3-11.5 9.6c-4.9 2.3-10.5 3.4-16.7 3.4-.7 0-1.4 0-2.1 0-6.9-.2-12.7-1.3-17.5-3.4-5.3-2.3-9.5-5.8-12.6-10.4-1.9-2.8-3.2-5.9-4-9.2-.4-1.8 0-3.7 1-5.2 1.1-1.5 2.7-2.4 4.6-2.6h.5c2.8 0 5.3 1.9 6.1 4.7.6 2.2 1.4 4.1 2.5 5.7 1.7 2.6 4.5 4.7 8.2 6.3s8 2.4 12.7 2.4c4.2 0 7.9-.6 11-1.9 3.1-1.2 5.4-2.9 6.9-4.9 1.5-2.1 2.2-4.3 2.2-6.8s-.7-4.6-2.1-6.5-3.9-3.4-7.3-4.7c-2.2-.9-7.3-2.3-15-4.1-7.8-1.9-13.4-3.7-16.6-5.4-4.1-2.2-7.3-4.9-9.3-8.2-2.1-3.3-3.1-7-3.1-11 0-4.4 1.3-8.6 3.8-12.4s6.2-6.8 11-8.8c4.7-2 10.1-3 15.9-3z" fill="#212121" fill-rule="evenodd"/></g></g><g><g><path clip-rule="evenodd" d="m225.3 320.2c-12.7 0-25.1-2.5-36.8-7.4-11.2-4.8-21.3-11.6-30-20.2-8.7-8.7-15.5-18.8-20.2-30-4.9-11.6-7.4-24-7.4-36.8 0-12.7 2.5-25.1 7.4-36.8 4.8-11.2 11.6-21.3 20.2-30 8.7-8.7 18.8-15.5 30-20.2 11.6-4.9 24-7.4 36.8-7.4s25.1 2.5 36.8 7.4c11.2 4.8 21.3 11.6 30 20.2 8.7 8.7 15.5 18.8 20.2 30 4.9 11.6 7.4 24 7.4 36.8 0 12.7-2.5 25.1-7.4 36.8-4.8 11.2-11.6 21.3-20.2 30-8.7 8.7-18.8 15.5-30 20.2-11.7 4.9-24.1 7.4-36.8 7.4zm0-177.4c-45.7 0-82.9 37.2-82.9 82.9s37.2 82.9 82.9 82.9 82.9-37.2 82.9-82.9-37.2-82.9-82.9-82.9z" fill="#212121" fill-rule="evenodd"/></g><g><path clip-rule="evenodd" d="m77.3 353.1c-3.2 0-5.8-2.6-5.8-5.8v-161c0-3.2 2.6-5.8 5.8-5.8s5.8 2.6 5.8 5.8v161c-.1 3.2-2.7 5.8-5.8 5.8z" fill="#212121" fill-rule="evenodd"/></g><g><path clip-rule="evenodd" d="m77.3 353.1c-1.8 0-3.4-.8-4.5-2.2l-30.6-38.9c-2-2.5-1.5-6.1 1-8.1s6.1-1.5 8.1 1l26 33.1 26-33.1c2-2.5 5.6-2.9 8.1-1 2.5 2 2.9 5.6 1 8.1l-30.6 38.9c-1.1 1.4-2.8 2.2-4.5 2.2z" fill="#212121" fill-rule="evenodd"/></g><g><path clip-rule="evenodd" d="m373.3 270.9c-3.2 0-5.8-2.6-5.8-5.8v-161c0-3.2 2.6-5.8 5.8-5.8s5.8 2.6 5.8 5.8v161c-.1 3.2-2.7 5.8-5.8 5.8z" fill="#212121" fill-rule="evenodd"/></g><g><path clip-rule="evenodd" d="m403.8 148.8c-1.7 0-3.4-.8-4.5-2.2l-26-33.1-26 33.1c-2 2.5-5.6 2.9-8.1 1-2.5-2-2.9-5.6-1-8.1l30.6-38.9c1.1-1.4 2.8-2.2 4.5-2.2s3.4.8 4.5 2.2l30.6 38.9c2 2.5 1.5 6.1-1 8.1-1.1.8-2.3 1.2-3.6 1.2z" fill="#212121" fill-rule="evenodd"/></g><g><path clip-rule="evenodd" d="m225.3 281.4c-3.2 0-5.8-2.6-5.8-5.8v-5.4c0-3.2 2.6-5.8 5.8-5.8s5.8 2.6 5.8 5.8v5.4c-.1 3.2-2.7 5.8-5.8 5.8z" fill="#212121" fill-rule="evenodd"/></g><g><path clip-rule="evenodd" d="m225.3 187c-3.2 0-5.8-2.6-5.8-5.8v-5.3c0-3.2 2.6-5.8 5.8-5.8s5.8 2.6 5.8 5.8v5.3c-.1 3.2-2.7 5.8-5.8 5.8z" fill="#212121" fill-rule="evenodd"/></g></g></g></g></g></g></g></svg>